<svg preserveAspectRatio="none" width="100%" height="100%" overflow="visible" style="display: block;" viewBox="0 0 151.597 151.583" fill="none" xmlns="http://www.w3.org/2000/svg">
<g id="pattern">
<g id="Vector">
<path fill-rule="evenodd" clip-rule="evenodd" d="M25.0355 140.078C25.0379 109.564 37.1617 80.3015 58.7397 58.7269C80.3178 37.1522 109.583 25.0331 140.096 25.0355L140.097 11.5C105.994 11.4973 73.2861 25.0423 49.1695 49.1551C25.0528 73.268 11.5027 105.974 11.5 140.077L25.0355 140.078Z" fill="var(--fill-0, white)"/>
<path fill-rule="evenodd" clip-rule="evenodd" d="M38.571 140.079C38.5731 113.155 49.2706 87.3351 68.31 68.2987C87.3495 49.2622 113.171 38.5688 140.095 38.571L140.096 25.0355C109.583 25.0331 80.3178 37.1522 58.7397 58.7269C37.1617 80.3015 25.0379 109.564 25.0355 140.078L38.571 140.079Z" fill="var(--fill-0, white)"/>
<path fill-rule="evenodd" clip-rule="evenodd" d="M52.1065 140.08C52.1083 116.746 61.3794 94.3687 77.8803 77.8705C94.3812 61.3722 116.76 52.1046 140.094 52.1065L140.095 38.571C113.171 38.5688 87.3495 49.2622 68.31 68.2987C49.2706 87.3351 38.5731 113.155 38.571 140.079L52.1065 140.08Z" fill="var(--fill-0, white)"/>
<path fill-rule="evenodd" clip-rule="evenodd" d="M65.6419 140.081C65.6435 120.337 73.4883 101.402 87.4506 87.4423C101.413 73.4822 120.349 65.6404 140.093 65.6419L140.094 52.1065C116.76 52.1046 94.3812 61.3722 77.8803 77.8705C61.3794 94.3687 52.1083 116.746 52.1065 140.08L65.6419 140.081Z" fill="var(--fill-0, white)"/>
<path fill-rule="evenodd" clip-rule="evenodd" d="M79.1774 140.082C79.1787 123.928 85.5972 108.436 97.0209 97.0141C108.445 85.5922 123.938 79.1761 140.092 79.1774L140.093 65.6419C120.349 65.6404 101.413 73.4822 87.4506 87.4423C73.4883 101.402 65.6435 120.337 65.6419 140.081L79.1774 140.082Z" fill="var(--fill-0, white)"/>
<path fill-rule="evenodd" clip-rule="evenodd" d="M92.7129 140.083C92.7139 127.519 97.7061 115.47 106.591 106.586C115.476 97.7022 127.526 92.7119 140.091 92.7129L140.092 79.1774C123.938 79.1761 108.445 85.5922 97.0209 97.0141C85.5972 108.436 79.1787 123.928 79.1774 140.082L92.7129 140.083Z" fill="var(--fill-0, white)"/>
<path d="M25.0355 140.078C25.0379 109.564 37.1617 80.3015 58.7397 58.7269C80.3178 37.1522 109.583 25.0331 140.096 25.0355M25.0355 140.078L11.5 140.077C11.5027 105.974 25.0528 73.268 49.1695 49.1551C73.2861 25.0423 105.994 11.4973 140.097 11.5L140.096 25.0355M25.0355 140.078L38.571 140.079M140.096 25.0355L140.095 38.571M38.571 140.079C38.5731 113.155 49.2706 87.3351 68.31 68.2987C87.3495 49.2622 113.171 38.5688 140.095 38.571M38.571 140.079L52.1065 140.08M140.095 38.571L140.094 52.1065M52.1065 140.08C52.1083 116.746 61.3794 94.3687 77.8803 77.8705C94.3812 61.3722 116.76 52.1046 140.094 52.1065M52.1065 140.08L65.6419 140.081M140.092 79.1774L140.093 65.6419L140.094 52.1065M65.6419 140.081C65.6435 120.337 73.4883 101.402 87.4506 87.4423C101.413 73.4822 120.349 65.6404 140.093 65.6419M65.6419 140.081L79.1774 140.082M79.1774 140.082C79.1787 123.928 85.5972 108.436 97.0209 97.0141C108.445 85.5922 123.938 79.1761 140.092 79.1774M79.1774 140.082L92.7129 140.083C92.7139 127.519 97.7061 115.47 106.591 106.586C115.476 97.7022 127.526 92.7119 140.091 92.7129L140.092 79.1774" stroke="var(--stroke-0, white)" stroke-width="23" stroke-linejoin="round"/>
</g>
<path id="Ellipse 27 (Stroke)" fill-rule="evenodd" clip-rule="evenodd" d="M25.0355 140.078C25.0379 109.564 37.1617 80.3015 58.7397 58.7269C80.3178 37.1522 109.583 25.0331 140.096 25.0355L140.097 11.5C105.994 11.4973 73.2861 25.0423 49.1695 49.1551C25.0528 73.268 11.5027 105.974 11.5 140.077L25.0355 140.078Z" fill="var(--fill-0, #F33A4A)"/>
<path id="Ellipse 28 (Stroke)" fill-rule="evenodd" clip-rule="evenodd" d="M38.5719 140.079C38.574 113.155 49.2715 87.3346 68.3109 68.2982C87.3504 49.2617 113.172 38.5683 140.096 38.5704L140.097 25.035C109.584 25.0325 80.3187 37.1517 58.7407 58.7264C37.1626 80.301 25.0388 109.564 25.0364 140.077L38.5719 140.079Z" fill="var(--fill-0, #FF862B)"/>
<path id="Ellipse 29 (Stroke)" fill-rule="evenodd" clip-rule="evenodd" d="M52.1065 140.08C52.1084 116.746 61.3795 94.3685 77.8804 77.8702C94.3813 61.3719 116.76 52.1043 140.094 52.1062L140.095 38.5707C113.171 38.5686 87.3496 49.262 68.3101 68.2984C49.2706 87.3349 38.5732 113.155 38.5711 140.079L52.1065 140.08Z" fill="var(--fill-0, #EEE46B)"/>
<path id="Ellipse 30 (Stroke)" fill-rule="evenodd" clip-rule="evenodd" d="M65.6421 140.082C65.6436 120.338 73.4884 101.403 87.4507 87.443C101.413 73.483 120.349 65.6412 140.093 65.6427L140.094 52.1072C116.76 52.1054 94.3813 61.373 77.8804 77.8713C61.3796 94.3695 52.1084 116.747 52.1066 140.081L65.6421 140.082Z" fill="var(--fill-0, #15B87D)"/>
<path id="Ellipse 31 (Stroke)" fill-rule="evenodd" clip-rule="evenodd" d="M79.1785 140.083C79.1797 123.928 85.5982 108.436 97.0219 97.0143C108.446 85.5924 123.939 79.1764 140.093 79.1777L140.094 65.6422C120.35 65.6406 101.414 73.4824 87.4516 87.4425C73.4894 101.403 65.6445 120.337 65.643 140.081L79.1785 140.083Z" fill="var(--fill-0, #0F90D9)"/>
<path id="Ellipse 32 (Stroke)" fill-rule="evenodd" clip-rule="evenodd" d="M92.714 140.083C92.715 127.519 97.7071 115.469 106.592 106.586C115.477 97.7019 127.528 92.7116 140.092 92.7126L140.093 79.1771C123.939 79.1759 108.446 85.5919 97.022 97.0138C85.5983 108.436 79.1798 123.928 79.1785 140.082L92.714 140.083Z" fill="var(--fill-0, #8C49CA)"/>
<path id="Vector_2" d="M25.0355 140.078C25.0379 109.564 37.1617 80.3015 58.7397 58.7269C80.3178 37.1522 109.583 25.0331 140.096 25.0355M25.0355 140.078L11.5 140.077C11.5027 105.974 25.0528 73.268 49.1695 49.1551C73.2861 25.0423 105.994 11.4973 140.097 11.5L140.096 25.0355M25.0355 140.078L38.571 140.079M140.096 25.0355L140.095 38.571M38.571 140.079C38.5731 113.155 49.2706 87.3351 68.31 68.2987C87.3495 49.2622 113.171 38.5688 140.095 38.571M38.571 140.079L52.1065 140.08M140.095 38.571L140.094 52.1065M52.1065 140.08C52.1083 116.746 61.3794 94.3687 77.8803 77.8705C94.3812 61.3722 116.76 52.1046 140.094 52.1065M52.1065 140.08L65.6419 140.081M140.092 79.1774L140.093 65.6419L140.094 52.1065M65.6419 140.081C65.6435 120.337 73.4883 101.402 87.4506 87.4423C101.413 73.4822 120.349 65.6404 140.093 65.6419M65.6419 140.081L79.1774 140.082M79.1774 140.082C79.1787 123.928 85.5972 108.436 97.0209 97.0141C108.445 85.5922 123.938 79.1761 140.092 79.1774M79.1774 140.082L92.7129 140.083C92.7139 127.519 97.7061 115.47 106.591 106.586C115.476 97.7022 127.526 92.7119 140.091 92.7129L140.092 79.1774" stroke="var(--stroke-0, black)" stroke-width="3" stroke-linejoin="round"/>
</g>
</svg>
