<svg viewBox="0 0 24 24" fill="none" xmlns="http://www.w3.org/2000/svg" aria-hidden="true"><g opacity="0.8"><path d="M14.6456 20.6053C12.7272 21.1937 10.6671 21.1234 8.79321 20.4055C6.91936 19.6877 5.33952 18.3636 4.3052 16.6441C3.27088 14.9245 2.84153 12.9084 3.08553 10.9167C3.32952 8.92492 4.23281 7.07204 5.65161 5.65302C7.07041 4.23401 8.92314 3.33042 10.9148 3.08611C12.9066 2.84181 14.9228 3.27083 16.6424 4.30488C18.3621 5.33893 19.6865 6.91857 20.4046 8.7923C21.1227 10.666 21.1934 12.7262 20.6053 14.6447L14.6456 20.6053Z" stroke="white" stroke-width="1.5" stroke-linecap="round" stroke-linejoin="round"/><path d="M8.625 11.0625C9.14277 11.0625 9.5625 10.6428 9.5625 10.125C9.5625 9.60723 9.14277 9.1875 8.625 9.1875C8.10723 9.1875 7.6875 9.60723 7.6875 10.125C7.6875 10.6428 8.10723 11.0625 8.625 11.0625Z" fill="white"/><path d="M15.375 11.0625C15.8928 11.0625 16.3125 10.6428 16.3125 10.125C16.3125 9.60723 15.8928 9.1875 15.375 9.1875C14.8572 9.1875 14.4375 9.60723 14.4375 10.125C14.4375 10.6428 14.8572 11.0625 15.375 11.0625Z" fill="white"/><path d="M15.75 14.25C14.9719 15.5953 13.6659 16.5 12 16.5C10.3341 16.5 9.02813 15.5953 8.25 14.25" stroke="white" stroke-width="1.5" stroke-linecap="round" stroke-linejoin="round"/></g></svg>
