<svg viewBox="0 0 24 24" fill="none" xmlns="http://www.w3.org/2000/svg" aria-hidden="true"><g opacity="0.8"><path d="M4.5 19.5H19.5C19.8978 19.5 20.2794 19.342 20.5607 19.0607C20.842 18.7794 21 18.3978 21 18V8.25C21 7.85218 20.842 7.47064 20.5607 7.18934C20.2794 6.90804 19.8978 6.75 19.5 6.75H12.1294L9.75 4.5H4.5C4.10218 4.5 3.72064 4.65804 3.43934 4.93934C3.15804 5.22064 3 5.60218 3 6V18C3 18.3978 3.15804 18.7794 3.43934 19.0607C3.72064 19.342 4.10218 19.5 4.5 19.5Z" stroke="white" stroke-width="1.5" stroke-linecap="round" stroke-linejoin="round"/><path d="M12 10.5V15.75M12 15.75L9.75 13.5M12 15.75L14.25 13.5" stroke="white" stroke-width="1.5" stroke-linecap="round" stroke-linejoin="round"/></g></svg>
